<mxfile host="app.diagrams.net" modified="2021-03-22T12:08:28.042Z" agent="5.0 (Macintosh; Intel Mac OS X 10_15_5) AppleWebKit/537.36 (KHTML, like Gecko) Chrome/88.0.4324.192 Safari/537.36 OPR/74.0.3911.218" etag="ANnK2OmBeuJuLvMSVGu7" version="14.3.0" type="github">
  <diagram name="Page-1" id="74e2e168-ea6b-b213-b513-2b3c1d86103e">
    <mxGraphModel dx="1186" dy="747" grid="1" gridSize="10" guides="1" tooltips="1" connect="1" arrows="1" fold="1" page="1" pageScale="1" pageWidth="1100" pageHeight="850" background="#ffffff" math="0" shadow="0">
      <root>
        <mxCell id="0" />
        <mxCell id="1" parent="0" />
        <mxCell id="77e6c97f196da883-1" value="Pool" style="swimlane;html=1;childLayout=stackLayout;startSize=20;rounded=0;shadow=0;labelBackgroundColor=none;strokeWidth=1;fontFamily=Verdana;fontSize=8;align=center;" parent="1" vertex="1">
          <mxGeometry x="400" y="40" width="480" height="1080" as="geometry" />
        </mxCell>
        <mxCell id="77e6c97f196da883-26" style="edgeStyle=orthogonalEdgeStyle;rounded=1;html=1;labelBackgroundColor=none;startArrow=none;startFill=0;startSize=5;endArrow=classicThin;endFill=1;endSize=5;jettySize=auto;orthogonalLoop=1;strokeWidth=1;fontFamily=Verdana;fontSize=8" parent="77e6c97f196da883-1" target="77e6c97f196da883-11" edge="1">
          <mxGeometry relative="1" as="geometry">
            <mxPoint x="120" y="115" as="sourcePoint" />
          </mxGeometry>
        </mxCell>
        <mxCell id="77e6c97f196da883-27" style="edgeStyle=orthogonalEdgeStyle;rounded=1;html=1;labelBackgroundColor=none;startArrow=none;startFill=0;startSize=5;endArrow=classicThin;endFill=1;endSize=5;jettySize=auto;orthogonalLoop=1;strokeWidth=1;fontFamily=Verdana;fontSize=8" parent="77e6c97f196da883-1" source="77e6c97f196da883-11" edge="1">
          <mxGeometry relative="1" as="geometry">
            <Array as="points">
              <mxPoint x="240" y="155" />
              <mxPoint x="70" y="155" />
            </Array>
            <mxPoint x="70" y="175" as="targetPoint" />
          </mxGeometry>
        </mxCell>
        <mxCell id="77e6c97f196da883-33" style="edgeStyle=orthogonalEdgeStyle;rounded=1;html=1;labelBackgroundColor=none;startArrow=none;startFill=0;startSize=5;endArrow=classicThin;endFill=1;endSize=5;jettySize=auto;orthogonalLoop=1;strokeWidth=1;fontFamily=Verdana;fontSize=8" parent="77e6c97f196da883-1" target="77e6c97f196da883-15" edge="1">
          <mxGeometry relative="1" as="geometry">
            <mxPoint x="335" y="20" as="sourcePoint" />
          </mxGeometry>
        </mxCell>
        <mxCell id="77e6c97f196da883-39" style="edgeStyle=orthogonalEdgeStyle;rounded=1;html=1;labelBackgroundColor=none;startArrow=none;startFill=0;startSize=5;endArrow=classicThin;endFill=1;endSize=5;jettySize=auto;orthogonalLoop=1;strokeWidth=1;fontFamily=Verdana;fontSize=8" parent="77e6c97f196da883-1" target="77e6c97f196da883-23" edge="1">
          <mxGeometry relative="1" as="geometry">
            <mxPoint x="365" y="20" as="sourcePoint" />
          </mxGeometry>
        </mxCell>
        <mxCell id="77e6c97f196da883-40" style="edgeStyle=orthogonalEdgeStyle;rounded=1;html=1;labelBackgroundColor=none;startArrow=none;startFill=0;startSize=5;endArrow=classicThin;endFill=1;endSize=5;jettySize=auto;orthogonalLoop=1;strokeWidth=1;fontFamily=Verdana;fontSize=8" parent="77e6c97f196da883-1" target="77e6c97f196da883-24" edge="1">
          <mxGeometry relative="1" as="geometry">
            <mxPoint x="395" y="20" as="sourcePoint" />
          </mxGeometry>
        </mxCell>
        <mxCell id="107ba76e4e335f99-1" style="edgeStyle=orthogonalEdgeStyle;rounded=1;html=1;labelBackgroundColor=none;startArrow=none;startFill=0;startSize=5;endArrow=classicThin;endFill=1;endSize=5;jettySize=auto;orthogonalLoop=1;strokeWidth=1;fontFamily=Verdana;fontSize=8" parent="77e6c97f196da883-1" target="77e6c97f196da883-18" edge="1">
          <mxGeometry relative="1" as="geometry">
            <mxPoint x="365" y="20" as="sourcePoint" />
          </mxGeometry>
        </mxCell>
        <mxCell id="107ba76e4e335f99-2" style="edgeStyle=orthogonalEdgeStyle;rounded=1;html=1;labelBackgroundColor=none;startArrow=none;startFill=0;startSize=5;endArrow=classicThin;endFill=1;endSize=5;jettySize=auto;orthogonalLoop=1;strokeWidth=1;fontFamily=Verdana;fontSize=8" parent="77e6c97f196da883-1" source="77e6c97f196da883-22" edge="1">
          <mxGeometry relative="1" as="geometry">
            <Array as="points">
              <mxPoint x="660" y="610" />
              <mxPoint x="660" y="550" />
              <mxPoint x="400" y="550" />
            </Array>
            <mxPoint x="350" y="385" as="targetPoint" />
          </mxGeometry>
        </mxCell>
        <mxCell id="107ba76e4e335f99-3" style="edgeStyle=orthogonalEdgeStyle;rounded=1;html=1;labelBackgroundColor=none;startArrow=none;startFill=0;startSize=5;endArrow=classicThin;endFill=1;endSize=5;jettySize=auto;orthogonalLoop=1;strokeColor=#000000;strokeWidth=1;fontFamily=Verdana;fontSize=8;fontColor=#000000;" parent="77e6c97f196da883-1" source="77e6c97f196da883-22" edge="1">
          <mxGeometry relative="1" as="geometry">
            <mxPoint x="365" y="750" as="targetPoint" />
          </mxGeometry>
        </mxCell>
        <mxCell id="107ba76e4e335f99-6" style="edgeStyle=orthogonalEdgeStyle;rounded=1;html=1;labelBackgroundColor=none;startArrow=none;startFill=0;startSize=5;endArrow=classicThin;endFill=1;endSize=5;jettySize=auto;orthogonalLoop=1;strokeWidth=1;fontFamily=Verdana;fontSize=8" parent="77e6c97f196da883-1" target="77e6c97f196da883-19" edge="1">
          <mxGeometry relative="1" as="geometry">
            <mxPoint x="335" y="20" as="sourcePoint" />
          </mxGeometry>
        </mxCell>
        <mxCell id="77e6c97f196da883-2" value="Lane 1" style="swimlane;html=1;startSize=20;" parent="77e6c97f196da883-1" vertex="1">
          <mxGeometry y="20" width="240" height="1060" as="geometry" />
        </mxCell>
        <mxCell id="88_dYQukVziaNtQ58kp0-1" value="&lt;span style=&quot;font-size: 9pt ; font-family: &amp;#34;times&amp;#34;&quot;&gt;Gather User credentials and&amp;nbsp;&amp;nbsp; U&lt;sub&gt;identifier&lt;/sub&gt;.&lt;/span&gt;&lt;span style=&quot;font-size: medium&quot;&gt;&lt;/span&gt;" style="rounded=0;whiteSpace=wrap;html=1;" vertex="1" parent="77e6c97f196da883-2">
          <mxGeometry x="50" y="40" width="120" height="60" as="geometry" />
        </mxCell>
        <mxCell id="88_dYQukVziaNtQ58kp0-2" value="&lt;p class=&quot;MsoNormal&quot; align=&quot;left&quot; style=&quot;margin: 6pt 0cm ; text-align: left ; text-indent: 0cm ; font-size: 10pt&quot;&gt;&lt;span style=&quot;font-size: 9pt&quot;&gt;H&lt;sub&gt;cred&lt;/sub&gt;=&amp;nbsp; h(username||password)&lt;br&gt;Hauth= {H&lt;sub&gt;cred&lt;/sub&gt;,D&lt;sub&gt;id&lt;/sub&gt;,h(U&lt;sub&gt;identifier&lt;/sub&gt;),t&lt;sub&gt;device&lt;/sub&gt;}&amp;nbsp;&lt;/span&gt;&lt;/p&gt;" style="rounded=0;whiteSpace=wrap;html=1;" vertex="1" parent="77e6c97f196da883-2">
          <mxGeometry x="15" y="130" width="210" height="70" as="geometry" />
        </mxCell>
        <mxCell id="88_dYQukVziaNtQ58kp0-5" value="&lt;p class=&quot;MsoNormal&quot; style=&quot;margin: 0cm ; text-align: justify ; text-indent: 0cm ; font-size: 10pt&quot;&gt;&lt;span style=&quot;font-size: 9pt&quot;&gt;Retrieve K.&lt;br&gt;Pass C&lt;sub&gt;s&lt;/sub&gt; to PUF module.&lt;/span&gt;&lt;/p&gt;&lt;p class=&quot;MsoNormal&quot; style=&quot;margin: 0cm ; text-align: justify ; text-indent: 0cm ; font-size: 10pt&quot;&gt;&lt;br&gt;&lt;/p&gt;&lt;p class=&quot;MsoNormal&quot; style=&quot;margin: 0cm ; text-align: justify ; text-indent: 0cm ; font-size: 10pt&quot;&gt;&lt;span style=&quot;font-size: 9pt&quot;&gt;R&lt;sub&gt;s&lt;/sub&gt; = {h(R&lt;sub&gt;a&lt;/sub&gt;),h(R&lt;sub&gt;d&lt;/sub&gt;),h(R&lt;sub&gt;m&lt;/sub&gt;),random string)} .&lt;sub&gt;&amp;nbsp;&amp;nbsp;&amp;nbsp;&amp;nbsp;&amp;nbsp;&amp;nbsp;&lt;/sub&gt;&lt;br&gt;R = {R&lt;sub&gt;s&lt;/sub&gt;, R&lt;/span&gt;&lt;span style=&quot;font-size: 9pt&quot;&gt;⊕&lt;/span&gt;&lt;span style=&quot;font-size: 9pt&quot;&gt;K,t&lt;sub&gt;device&lt;/sub&gt;} , where R is a random number&lt;/span&gt;&lt;/p&gt;" style="rounded=0;whiteSpace=wrap;html=1;" vertex="1" parent="77e6c97f196da883-2">
          <mxGeometry x="20" y="400" width="190" height="120" as="geometry" />
        </mxCell>
        <mxCell id="88_dYQukVziaNtQ58kp0-9" value="&lt;span style=&quot;font-size: 9pt ; font-family: &amp;#34;times&amp;#34;&quot;&gt;Calculate H’= h(U&lt;sub&gt;identifier&lt;/sub&gt;,D&lt;sub&gt;id&lt;/sub&gt;,R,K).&lt;/span&gt;&lt;span style=&quot;font-size: medium&quot;&gt;&lt;/span&gt;" style="rhombus;whiteSpace=wrap;html=1;" vertex="1" parent="77e6c97f196da883-2">
          <mxGeometry x="50" y="820" width="130" height="110" as="geometry" />
        </mxCell>
        <mxCell id="88_dYQukVziaNtQ58kp0-12" value="&lt;span style=&quot;font-size: 9pt ; font-family: &amp;#34;times&amp;#34;&quot;&gt;proceed to contact Authorization Server for OAuth Token&lt;/span&gt;&lt;span style=&quot;font-size: medium&quot;&gt;&lt;/span&gt;" style="rounded=0;whiteSpace=wrap;html=1;" vertex="1" parent="77e6c97f196da883-2">
          <mxGeometry x="50" y="960" width="120" height="60" as="geometry" />
        </mxCell>
        <mxCell id="88_dYQukVziaNtQ58kp0-18" value="&lt;span style=&quot;font-size: 9pt ; font-family: &amp;#34;times&amp;#34;&quot;&gt;H’= h(U&lt;sub&gt;identifier&lt;/sub&gt;,D&lt;sub&gt;id&lt;/sub&gt;,R,K).&lt;/span&gt;&lt;span style=&quot;font-size: medium&quot;&gt;&lt;/span&gt;" style="rounded=0;whiteSpace=wrap;html=1;" vertex="1" parent="77e6c97f196da883-2">
          <mxGeometry x="50" y="740" width="120" height="60" as="geometry" />
        </mxCell>
        <mxCell id="88_dYQukVziaNtQ58kp0-19" value="tdevice-tserver&amp;gt;tdelta" style="rhombus;whiteSpace=wrap;html=1;" vertex="1" parent="77e6c97f196da883-2">
          <mxGeometry x="60" y="650" width="100" height="80" as="geometry" />
        </mxCell>
        <mxCell id="77e6c97f196da883-3" value="Lane 2" style="swimlane;html=1;startSize=20;" parent="77e6c97f196da883-1" vertex="1">
          <mxGeometry x="240" y="20" width="240" height="1060" as="geometry" />
        </mxCell>
        <mxCell id="88_dYQukVziaNtQ58kp0-3" value="&lt;span style=&quot;font-size: 9pt&quot;&gt;t&lt;sub&gt;server&lt;/sub&gt;-t&lt;sub&gt;device&lt;/sub&gt; &amp;gt; t&lt;sub&gt;delta&lt;/sub&gt;&lt;/span&gt;&lt;span style=&quot;font-size: medium&quot;&gt;&lt;/span&gt;" style="rhombus;whiteSpace=wrap;html=1;" vertex="1" parent="77e6c97f196da883-3">
          <mxGeometry x="60" y="180" width="130" height="100" as="geometry" />
        </mxCell>
        <mxCell id="88_dYQukVziaNtQ58kp0-4" value="&lt;span style=&quot;font-size: 9pt&quot;&gt;Randomly choose a subset of challenges C&lt;sub&gt;s&lt;/sub&gt;&amp;nbsp; from the CRPs stored for D&lt;sub&gt;id&amp;nbsp;&lt;/sub&gt;&lt;br&gt;Generate a random number K.&lt;br&gt;C = {C&lt;sub&gt;s&lt;/sub&gt;,K&lt;/span&gt;&lt;span style=&quot;font-size: 9pt&quot;&gt;⊕&lt;/span&gt;&lt;span style=&quot;font-size: 9pt&quot;&gt;D&lt;sub&gt;id&lt;/sub&gt;} &lt;sub style=&quot;font-family: &amp;#34;times&amp;#34;&quot;&gt;.&lt;/sub&gt;&lt;font face=&quot;times&quot;&gt;&amp;nbsp;&lt;/font&gt;&lt;/span&gt;&lt;span style=&quot;font-size: medium&quot;&gt;&lt;/span&gt;" style="rounded=0;whiteSpace=wrap;html=1;" vertex="1" parent="77e6c97f196da883-3">
          <mxGeometry x="40" y="310" width="160" height="100" as="geometry" />
        </mxCell>
        <mxCell id="88_dYQukVziaNtQ58kp0-6" value="&lt;span style=&quot;font-size: 9pt&quot;&gt;t&lt;sub&gt;server&lt;/sub&gt;-t&lt;sub&gt;device&lt;/sub&gt; &amp;gt; t&lt;sub&gt;delta&lt;/sub&gt;&lt;/span&gt;&lt;span style=&quot;font-size: medium&quot;&gt;&lt;/span&gt;" style="rhombus;whiteSpace=wrap;html=1;" vertex="1" parent="77e6c97f196da883-3">
          <mxGeometry x="50" y="460" width="140" height="80" as="geometry" />
        </mxCell>
        <mxCell id="88_dYQukVziaNtQ58kp0-7" value="&lt;span style=&quot;font-size: 9pt ; font-family: &amp;#34;times&amp;#34;&quot;&gt;Validate R&lt;sub&gt;s&lt;/sub&gt; against the database&lt;/span&gt;&lt;span style=&quot;font-size: medium&quot;&gt;&lt;/span&gt;" style="rhombus;whiteSpace=wrap;html=1;" vertex="1" parent="77e6c97f196da883-3">
          <mxGeometry x="47.5" y="560" width="145" height="110" as="geometry" />
        </mxCell>
        <mxCell id="88_dYQukVziaNtQ58kp0-8" value="&lt;p class=&quot;MsoNormal&quot; align=&quot;left&quot; style=&quot;margin: 0cm ; text-align: left ; text-indent: 0cm ; font-size: 10pt&quot;&gt;&lt;span style=&quot;font-size: 9pt&quot;&gt;H&lt;sub&gt;response = &lt;/sub&gt;h(U&lt;sub&gt;identifier&lt;/sub&gt;,D&lt;sub&gt;id&lt;/sub&gt;,R,K).&lt;/span&gt;&lt;/p&gt;&lt;span style=&quot;font-size: 9pt&quot;&gt;H ={H&lt;sub&gt;response&lt;/sub&gt;, t&lt;sub&gt;server&lt;/sub&gt; }&lt;/span&gt;&lt;span style=&quot;font-size: medium&quot;&gt;&lt;/span&gt;" style="rounded=0;whiteSpace=wrap;html=1;" vertex="1" parent="77e6c97f196da883-3">
          <mxGeometry x="30" y="720" width="190" height="50" as="geometry" />
        </mxCell>
        <mxCell id="88_dYQukVziaNtQ58kp0-13" value="Stop" style="rounded=1;whiteSpace=wrap;html=1;" vertex="1" parent="77e6c97f196da883-3">
          <mxGeometry x="60" y="980" width="120" height="60" as="geometry" />
        </mxCell>
      </root>
    </mxGraphModel>
  </diagram>
</mxfile>
